<?xml version="1.0" encoding="UTF-8"?>
<!DOCTYPE svg PUBLIC "-//W3C//DTD SVG 1.1//EN" "http://www.w3.org/Graphics/SVG/1.1/DTD/svg11.dtd">
<svg xmlns="http://www.w3.org/2000/svg" version="1.1" width="225px" height="225px" style="shape-rendering:geometricPrecision; text-rendering:geometricPrecision; image-rendering:optimizeQuality; fill-rule:evenodd; clip-rule:evenodd" xmlns:xlink="http://www.w3.org/1999/xlink">
<g><path style="opacity:1" fill="#fdfcfc" d="M -0.5,-0.5 C 74.5,-0.5 149.5,-0.5 224.5,-0.5C 224.5,74.5 224.5,149.5 224.5,224.5C 149.5,224.5 74.5,224.5 -0.5,224.5C -0.5,149.5 -0.5,74.5 -0.5,-0.5 Z"/></g>
<g><path style="opacity:1" fill="#ab4b4d" d="M 49.5,44.5 C 69.3264,43.5029 89.3264,43.1695 109.5,43.5C 109.83,64.0069 109.497,84.3402 108.5,104.5C 108.5,84.5 108.5,64.5 108.5,44.5C 88.8333,44.5 69.1667,44.5 49.5,44.5 Z"/></g>
<g><path style="opacity:1" fill="#ab4b4d" d="M 174.5,44.5 C 154.833,44.5 135.167,44.5 115.5,44.5C 115.5,64.5 115.5,84.5 115.5,104.5C 114.503,84.3402 114.17,64.0069 114.5,43.5C 134.674,43.1695 154.674,43.5029 174.5,44.5 Z"/></g>
<g><path style="opacity:1" fill="#b0282c" d="M 49.5,44.5 C 69.1667,44.5 88.8333,44.5 108.5,44.5C 108.5,64.5 108.5,84.5 108.5,104.5C 88.8333,104.5 69.1667,104.5 49.5,104.5C 49.5,84.5 49.5,64.5 49.5,44.5 Z"/></g>
<g><path style="opacity:1" fill="#b0282c" d="M 174.5,44.5 C 174.5,64.5 174.5,84.5 174.5,104.5C 154.833,104.5 135.167,104.5 115.5,104.5C 115.5,84.5 115.5,64.5 115.5,44.5C 135.167,44.5 154.833,44.5 174.5,44.5 Z"/></g>
<g><path style="opacity:1" fill="#c1676b" d="M 61.5,69.5 C 62.2751,71.6119 62.2751,73.6119 61.5,75.5C 60.448,75.3505 59.448,75.5172 58.5,76C 59.6956,76.6543 59.6956,77.1543 58.5,77.5C 53.9721,72.972 54.9721,70.3053 61.5,69.5 Z"/></g>
<g><path style="opacity:1" fill="#f4e3e3" d="M 94.5,69.5 C 93.1497,76.2197 90.8164,82.553 87.5,88.5C 85.1094,90.8937 82.4427,92.8937 79.5,94.5C 76.5573,92.8937 73.8906,90.8937 71.5,88.5C 71.5,87.8333 71.1667,87.5 70.5,87.5C 67.712,82.1372 65.712,76.4705 64.5,70.5C 64.3379,68.4727 64.5045,66.4727 65,64.5C 67.9831,63.0835 71.1498,62.2501 74.5,62C 75.772,59.9555 75.4386,58.1222 73.5,56.5C 74.0016,55.479 74.6683,55.3123 75.5,56C 76.1905,57.0674 76.6905,58.2341 77,59.5C 77.6667,57.5 78.3333,55.5 79,53.5C 81.3361,54.2921 81.8361,55.6254 80.5,57.5C 81.8834,60.0756 82.7167,59.7423 83,56.5C 83.7175,55.5494 84.5509,55.3828 85.5,56C 83.9837,57.897 83.317,60.0637 83.5,62.5C 87.007,62.3067 90.3404,62.9733 93.5,64.5C 94.4519,66.0453 94.7852,67.712 94.5,69.5 Z"/></g>
<g><path style="opacity:1" fill="#e0c2c2" d="M 97.5,69.5 C 97.5,69.8333 97.5,70.1667 97.5,70.5C 97.1075,72.2838 96.4408,73.9505 95.5,75.5C 95.2322,77.099 95.5655,78.4324 96.5,79.5C 96.6309,80.3764 96.2975,81.0431 95.5,81.5C 93.8895,77.0212 94.5561,73.0212 97.5,69.5 Z"/></g>
<g><path style="opacity:1" fill="#c26769" d="M 97.5,70.5 C 103.808,70.7735 104.808,73.1068 100.5,77.5C 100.891,76.1095 100.058,75.1095 98,74.5C 97.3292,75.2524 96.4959,75.5858 95.5,75.5C 96.4408,73.9505 97.1075,72.2838 97.5,70.5 Z"/></g>
<g><path style="opacity:1" fill="#e1bdbe" d="M 163.5,90.5 C 162.791,91.404 161.791,91.7373 160.5,91.5C 160.296,86.7123 160.296,82.0456 160.5,77.5C 159.675,76.6143 158.675,76.281 157.5,76.5C 154.5,76.5 151.5,76.5 148.5,76.5C 148.5,81.1667 148.5,85.8333 148.5,90.5C 147.834,85.9834 147.167,81.3167 146.5,76.5C 145.893,76.6236 145.56,76.9569 145.5,77.5C 144.833,77.5 144.167,77.5 143.5,77.5C 142.833,76.1667 142.167,76.1667 141.5,77.5C 138.332,76.208 135.165,76.208 132,77.5C 131.501,81.8206 131.334,86.1539 131.5,90.5C 129.833,91.8333 128.167,91.8333 126.5,90.5C 126.5,85.8333 126.5,81.1667 126.5,76.5C 125.167,76.5 123.833,76.5 122.5,76.5C 122.5,75.1667 122.5,73.8333 122.5,72.5C 124.143,72.5198 125.476,71.8532 126.5,70.5C 129.69,64.317 134.69,60.317 141.5,58.5C 142.386,57.675 142.719,56.675 142.5,55.5C 143.833,55.5 145.167,55.5 146.5,55.5C 146.281,56.675 146.614,57.675 147.5,58.5C 155.148,59.9898 160.481,64.3232 163.5,71.5C 164.325,72.3857 165.325,72.719 166.5,72.5C 166.5,73.8333 166.5,75.1667 166.5,76.5C 165.178,76.33 164.011,76.6634 163,77.5C 162.186,82.0204 162.353,86.3537 163.5,90.5 Z"/></g>
<g><path style="opacity:1" fill="#fcfbfc" d="M 135.5,62.5 C 136.376,62.3691 137.043,62.7025 137.5,63.5C 136.253,65.323 135.586,67.323 135.5,69.5C 133.473,69.6621 131.473,69.4955 129.5,69C 131.027,66.3098 133.027,64.1432 135.5,62.5 Z"/></g>
<g><path style="opacity:1" fill="#fcfbfb" d="M 152.5,66.5 C 152.5,65.5 152.5,64.5 152.5,63.5C 155.624,63.9429 157.957,65.6095 159.5,68.5C 156.412,70.0888 154.078,69.4221 152.5,66.5 Z"/></g>
<g><path style="opacity:1" fill="#fbf8f8" d="M 142.5,60.5 C 144.388,62.9878 145.055,65.9878 144.5,69.5C 135.139,69.5842 134.472,66.5842 142.5,60.5 Z"/></g>
<g><path style="opacity:1" fill="#fbfbfb" d="M 152.5,66.5 C 152.5,67.5 152.5,68.5 152.5,69.5C 150.208,69.2436 148.041,69.5769 146,70.5C 144.171,59.4444 146.338,58.111 152.5,66.5 Z"/></g>
<g><path style="opacity:1" fill="#d19b9c" d="M 64.5,70.5 C 65.712,76.4705 67.712,82.1372 70.5,87.5C 68.9504,88.7199 67.2837,88.7199 65.5,87.5C 64.5592,85.9505 63.8925,84.2838 63.5,82.5C 65.2252,82.1575 65.7252,81.1575 65,79.5C 64.296,81.727 63.1294,82.0603 61.5,80.5C 62.7199,78.7163 62.7199,77.0496 61.5,75.5C 62.2751,73.6119 62.2751,71.6119 61.5,69.5C 60.9717,68.1526 60.805,66.8193 61,65.5C 62.1889,67.2331 63.3556,68.8998 64.5,70.5 Z"/></g>
<g><path style="opacity:1" fill="#fdf7f7" d="M 157.5,76.5 C 158.675,76.281 159.675,76.6143 160.5,77.5C 160.296,82.0456 160.296,86.7123 160.5,91.5C 159.209,91.7373 158.209,91.404 157.5,90.5C 158.797,85.9335 158.797,81.2669 157.5,76.5 Z"/></g>
<g><path style="opacity:1" fill="#e8cacb" d="M 61.5,80.5 C 59.9504,81.7199 58.2837,81.7199 56.5,80.5C 58.0009,78.0428 59.6676,78.0428 61.5,80.5 Z"/></g>
<g><path style="opacity:1" fill="#af282c" d="M 141.5,77.5 C 141.818,82.0323 141.485,86.3656 140.5,90.5C 137.5,90.5 134.5,90.5 131.5,90.5C 131.334,86.1539 131.501,81.8206 132,77.5C 135.165,76.208 138.332,76.208 141.5,77.5 Z"/></g>
<g><path style="opacity:1" fill="#fcf5f5" d="M 143.5,77.5 C 144.167,94.8333 144.833,94.8333 145.5,77.5C 145.56,76.9569 145.893,76.6236 146.5,76.5C 147.167,81.3167 147.834,85.9834 148.5,90.5C 145.833,91.8333 143.167,91.8333 140.5,90.5C 141.485,86.3656 141.818,82.0323 141.5,77.5C 142.167,76.1667 142.833,76.1667 143.5,77.5 Z"/></g>
<g><path style="opacity:1" fill="#b02d2f" d="M 157.5,76.5 C 158.797,81.2669 158.797,85.9335 157.5,90.5C 154.5,90.5 151.5,90.5 148.5,90.5C 148.5,85.8333 148.5,81.1667 148.5,76.5C 151.5,76.5 154.5,76.5 157.5,76.5 Z"/></g>
<g><path style="opacity:1" fill="#c27678" d="M 97.5,69.5 C 94.5561,73.0212 93.8895,77.0212 95.5,81.5C 96.2975,81.0431 96.6309,80.3764 96.5,79.5C 97.1667,79.5 97.5,79.8333 97.5,80.5C 97.9169,81.1239 98.5836,81.4573 99.5,81.5C 100.713,81.2528 101.38,80.5862 101.5,79.5C 104.215,82.5996 105.048,86.2663 104,90.5C 102.38,92.632 100.546,92.9653 98.5,91.5C 102.976,91.1778 104.476,88.8444 103,84.5C 100.118,81.8752 97.2852,81.8752 94.5,84.5C 94.5654,84.0618 94.3988,83.7284 94,83.5C 92.6801,85.6544 90.8468,87.1544 88.5,88C 89.5,88.3333 90.5,88.6667 91.5,89C 90.244,89.4169 89.5774,90.2502 89.5,91.5C 88.3991,92.5983 87.0657,92.765 85.5,92C 86.8228,91.1841 87.4894,90.0174 87.5,88.5C 90.8164,82.553 93.1497,76.2197 94.5,69.5C 95.4793,68.2347 96.4793,66.9014 97.5,65.5C 97.9059,66.5575 97.9059,67.8908 97.5,69.5 Z"/></g>
<g><path style="opacity:1" fill="#e5cbcd" d="M 101.5,79.5 C 101.38,80.5862 100.713,81.2528 99.5,81.5C 98.5836,81.4573 97.9169,81.1239 97.5,80.5C 98.4822,79.8592 99.4822,79.1925 100.5,78.5C 101.107,78.6236 101.44,78.9569 101.5,79.5 Z"/></g>
<g><path style="opacity:1" fill="#a42027" d="M 143.5,77.5 C 144.167,77.5 144.833,77.5 145.5,77.5C 144.833,94.8333 144.167,94.8333 143.5,77.5 Z"/></g>
<g><path style="opacity:1" fill="#c26264" d="M 63.5,82.5 C 57.2987,81.5336 54.4654,84.2003 55,90.5C 54.0565,89.737 53.5565,88.737 53.5,87.5C 54.2515,85.0037 55.2515,82.6704 56.5,80.5C 58.2837,81.7199 59.9504,81.7199 61.5,80.5C 63.1294,82.0603 64.296,81.727 65,79.5C 65.7252,81.1575 65.2252,82.1575 63.5,82.5 Z"/></g>
<g><path style="opacity:1" fill="#ad292e" d="M 98.5,91.5 C 98.3893,90.8826 98.056,90.3826 97.5,90C 98.7932,89.51 100.127,89.3433 101.5,89.5C 100.943,83.6499 98.6101,82.9832 94.5,87.5C 93.8933,87.3764 93.56,87.0431 93.5,86.5C 93.8333,85.8333 94.1667,85.1667 94.5,84.5C 97.2852,81.8752 100.118,81.8752 103,84.5C 104.476,88.8444 102.976,91.1778 98.5,91.5 Z"/></g>
<g><path style="opacity:1" fill="#c4888b" d="M 72.5,63.5 C 78.9597,63.1502 85.293,63.8169 91.5,65.5C 93.018,76.1071 89.6846,84.9405 81.5,92C 80.1667,92.6667 78.8333,92.6667 77.5,92C 69.4104,84.9872 65.9104,76.1538 67,65.5C 68.9483,64.8906 70.7816,64.224 72.5,63.5 Z"/></g>
<g><path style="opacity:1" fill="#fcf9f9" d="M 71.5,65.5 C 77.8778,65.2946 84.2111,65.6279 90.5,66.5C 91.518,76.9993 87.6847,84.9993 79,90.5C 71.9266,85.193 68.0933,78.0264 67.5,69C 68.3471,67.2294 69.6805,66.0627 71.5,65.5 Z"/></g>
<g><path style="opacity:1" fill="#ddb5b8" d="M 82.5,75.5 C 81.791,76.404 80.791,76.7373 79.5,76.5C 79.7678,78.099 79.4345,79.4324 78.5,80.5C 78.1866,77.7531 78.52,75.0865 79.5,72.5C 80.735,73.3398 81.735,74.3398 82.5,75.5 Z"/></g>
<g><path style="opacity:1" fill="#9a201b" d="M 82.5,75.5 C 81.735,74.3398 80.735,73.3398 79.5,72.5C 78.52,75.0865 78.1866,77.7531 78.5,80.5C 77.5233,77.7131 77.19,74.7131 77.5,71.5C 80.9496,70.7564 82.6162,72.0897 82.5,75.5 Z"/></g>
<g><path style="opacity:1" fill="#bf6162" d="M 65.5,87.5 C 67.2837,88.7199 68.9504,88.7199 70.5,87.5C 71.1667,87.5 71.5,87.8333 71.5,88.5C 71.33,89.8221 71.6634,90.9887 72.5,92C 70.9343,92.765 69.6009,92.5983 68.5,91.5C 69.7383,91.19 69.7383,90.69 68.5,90C 67.552,89.5172 66.552,89.3505 65.5,89.5C 65.44,88.9569 65.1067,88.6236 64.5,88.5C 63.2807,89.2634 62.2807,90.2634 61.5,91.5C 60.3044,91.1543 60.3044,90.6543 61.5,90C 55.6864,89.2416 55.1864,87.4083 60,84.5C 61.482,86.1119 63.3153,87.1119 65.5,87.5 Z"/></g>
<g><path style="opacity:1" fill="#bf5b5c" d="M 98.5,91.5 C 97.0357,90.5946 95.7024,90.5946 94.5,91.5C 94.2969,89.9557 93.6302,88.6223 92.5,87.5C 92.6236,86.8933 92.9569,86.56 93.5,86.5C 93.56,87.0431 93.8933,87.3764 94.5,87.5C 98.6101,82.9832 100.943,83.6499 101.5,89.5C 100.127,89.3433 98.7932,89.51 97.5,90C 98.056,90.3826 98.3893,90.8826 98.5,91.5 Z"/></g>
<g><path style="opacity:1" fill="#eacac9" d="M 65.5,89.5 C 66.552,89.3505 67.552,89.5172 68.5,90C 69.7383,90.69 69.7383,91.19 68.5,91.5C 66.8008,91.6602 65.1341,91.4935 63.5,91C 64.0442,90.2828 64.7109,89.7828 65.5,89.5 Z"/></g>
<g><path style="opacity:1" fill="#dcb3b0" d="M 94.5,84.5 C 94.1667,85.1667 93.8333,85.8333 93.5,86.5C 92.9569,86.56 92.6236,86.8933 92.5,87.5C 93.6302,88.6223 94.2969,89.9557 94.5,91.5C 92.8333,91.5 91.1667,91.5 89.5,91.5C 89.5774,90.2502 90.244,89.4169 91.5,89C 90.5,88.6667 89.5,88.3333 88.5,88C 90.8468,87.1544 92.6801,85.6544 94,83.5C 94.3988,83.7284 94.5654,84.0618 94.5,84.5 Z"/></g>
<g><path style="opacity:1" fill="#d19796" d="M 126.5,90.5 C 128.167,91.8333 129.833,91.8333 131.5,90.5C 134.5,90.5 137.5,90.5 140.5,90.5C 143.167,91.8333 145.833,91.8333 148.5,90.5C 151.5,90.5 154.5,90.5 157.5,90.5C 158.209,91.404 159.209,91.7373 160.5,91.5C 161.791,91.7373 162.791,91.404 163.5,90.5C 164.675,90.281 165.675,90.6143 166.5,91.5C 151.833,92.8333 137.167,92.8333 122.5,91.5C 123.689,90.5713 125.022,90.238 126.5,90.5 Z"/></g>
<g><path style="opacity:1" fill="#ca9c99" d="M 102.5,119.5 C 100.901,119.232 99.5676,119.566 98.5,120.5C 97.7109,120.217 97.0442,119.717 96.5,119C 100.088,118.118 102.088,118.285 102.5,119.5 Z"/></g>
<g><path style="opacity:1" fill="#d4a4a0" d="M 123.5,119.5 C 118.968,119.182 114.634,119.515 110.5,120.5C 109.527,120.013 108.527,119.513 107.5,119C 113.016,118.183 118.35,118.349 123.5,119.5 Z"/></g>
<g><path style="opacity:1" fill="#cfa29f" d="M 147.5,119.5 C 143.629,119.185 139.962,119.518 136.5,120.5C 135.527,120.013 134.527,119.513 133.5,119C 138.352,118.185 143.019,118.352 147.5,119.5 Z"/></g>
<g><path style="opacity:1" fill="#b04e4e" d="M 186.5,120.5 C 186.5,120.167 186.5,119.833 186.5,119.5C 189.304,118.362 192.304,118.195 195.5,119C 197.363,120.418 197.863,122.251 197,124.5C 196.535,123.069 195.701,121.903 194.5,121C 191.854,120.503 189.187,120.336 186.5,120.5 Z"/></g>
<g><path style="opacity:1" fill="#af3534" d="M 15.5,139.5 C 14.1667,140.833 12.8333,140.833 11.5,139.5C 11.5,132.833 11.5,126.167 11.5,119.5C 15.1817,119.335 18.8484,119.501 22.5,120C 25.5527,124.182 24.886,127.682 20.5,130.5C 19.4949,129.89 19.6615,129.224 21,128.5C 22.3237,123.447 20.4903,120.78 15.5,120.5C 15.5,126.833 15.5,133.167 15.5,139.5 Z"/></g>
<g><path style="opacity:1" fill="#c08d8f" d="M 173.5,119.5 C 172.209,119.263 171.209,119.596 170.5,120.5C 169.527,120.013 168.527,119.513 167.5,119C 171.088,118.118 173.088,118.285 173.5,119.5 Z"/></g>
<g><path style="opacity:1" fill="#daafae" d="M 212.5,120.5 C 210.296,119.495 207.296,119.162 203.5,119.5C 203.5,126.5 203.5,133.5 203.5,140.5C 207.167,140.5 210.833,140.5 214.5,140.5C 210.019,141.648 205.352,141.815 200.5,141C 201.789,137.598 202.456,133.931 202.5,130C 202.456,126.069 201.789,122.402 200.5,119C 205.155,118.501 209.821,118.334 214.5,118.5C 214.657,119.873 214.49,121.207 214,122.5C 213.283,121.956 212.783,121.289 212.5,120.5 Z"/></g>
<g><path style="opacity:1" fill="#ad2c2d" d="M 147.5,119.5 C 147.649,120.552 147.483,121.552 147,122.5C 145.211,120.771 143.044,120.104 140.5,120.5C 140.5,123.167 140.5,125.833 140.5,128.5C 142.604,128.201 144.604,128.534 146.5,129.5C 146.376,130.107 146.043,130.44 145.5,130.5C 143.735,129.539 141.735,129.205 139.5,129.5C 139.19,132.713 139.523,135.713 140.5,138.5C 142.288,139.622 144.288,139.789 146.5,139C 147.126,138.25 147.626,137.416 148,136.5C 148.765,138.066 148.598,139.399 147.5,140.5C 143.629,140.815 139.962,140.482 136.5,139.5C 136.5,133.167 136.5,126.833 136.5,120.5C 139.962,119.518 143.629,119.185 147.5,119.5 Z"/></g>
<g><path style="opacity:1" fill="#ab1f25" d="M 212.5,120.5 C 210.833,120.5 209.167,120.5 207.5,120.5C 206.167,126.5 206.167,132.5 207.5,138.5C 209.56,139.811 211.726,139.811 214,138.5C 214.464,139.094 214.631,139.761 214.5,140.5C 210.833,140.5 207.167,140.5 203.5,140.5C 203.5,133.5 203.5,126.5 203.5,119.5C 207.296,119.162 210.296,119.495 212.5,120.5 Z"/></g>
<g><path style="opacity:1" fill="#ac292c" d="M 38.5,119.5 C 43.6252,122.936 43.6252,126.769 38.5,131C 40.7954,134.297 43.462,137.297 46.5,140C 45.1667,140.667 43.8333,140.667 42.5,140C 41.2949,138.624 39.9616,137.458 38.5,136.5C 37.9578,133.081 35.9578,131.414 32.5,131.5C 32.2229,134.448 32.5562,137.281 33.5,140C 32.2068,140.49 30.8734,140.657 29.5,140.5C 29.5,133.5 29.5,126.5 29.5,119.5C 32.5,119.5 35.5,119.5 38.5,119.5 Z"/></g>
<g><path style="opacity:1" fill="#f8f0f0" d="M 32.5,120.5 C 36.5803,120.081 38.5803,121.914 38.5,126C 38.5699,129.992 36.5699,131.492 32.5,130.5C 32.5,127.167 32.5,123.833 32.5,120.5 Z"/></g>
<g><path style="opacity:1" fill="#b03737" d="M 123.5,119.5 C 128.982,120.819 131.649,124.319 131.5,130C 131.649,135.681 128.982,139.181 123.5,140.5C 122.508,140.672 121.842,140.338 121.5,139.5C 124.148,139.262 125.982,137.928 127,135.5C 129.199,125.199 125.033,120.199 114.5,120.5C 114.334,126.509 114.501,132.509 115,138.5C 115.383,139.056 115.883,139.389 116.5,139.5C 114.5,140.833 112.5,140.833 110.5,139.5C 110.5,133.167 110.5,126.833 110.5,120.5C 114.634,119.515 118.968,119.182 123.5,119.5 Z"/></g>
<g><path style="opacity:1" fill="#fcf9f9" d="M 121.5,139.5 C 119.833,139.5 118.167,139.5 116.5,139.5C 115.883,139.389 115.383,139.056 115,138.5C 114.501,132.509 114.334,126.509 114.5,120.5C 125.033,120.199 129.199,125.199 127,135.5C 125.982,137.928 124.148,139.262 121.5,139.5 Z"/></g>
<g><path style="opacity:1" fill="#bf6664" d="M 207.5,120.5 C 207.5,123.167 207.5,125.833 207.5,128.5C 215.5,129.167 215.5,129.833 207.5,130.5C 207.5,133.167 207.5,135.833 207.5,138.5C 206.167,132.5 206.167,126.5 207.5,120.5 Z"/></g>
<g><path style="opacity:1" fill="#ae3434" d="M 55.5,118.5 C 66.8968,117.399 72.0635,122.399 71,133.5C 66.2933,141.624 59.7933,143.457 51.5,139C 45.2632,130.575 46.5965,123.741 55.5,118.5 Z"/></g>
<g><path style="opacity:1" fill="#fbf7f7" d="M 54.5,120.5 C 64.3922,119.897 68.5589,124.564 67,134.5C 62.8334,140.759 58.1668,141.092 53,135.5C 50.6323,130.122 51.1323,125.122 54.5,120.5 Z"/></g>
<g><path style="opacity:1" fill="#b13435" d="M 102.5,119.5 C 102.5,126.167 102.5,132.833 102.5,139.5C 101.167,140.833 99.8333,140.833 98.5,139.5C 98.5,133.167 98.5,126.833 98.5,120.5C 99.5676,119.566 100.901,119.232 102.5,119.5 Z"/></g>
<g><path style="opacity:1" fill="#eed7d6" d="M 38.5,119.5 C 35.5,119.5 32.5,119.5 29.5,119.5C 29.5,126.5 29.5,133.5 29.5,140.5C 30.8734,140.657 32.2068,140.49 33.5,140C 32.5562,137.281 32.2229,134.448 32.5,131.5C 35.9578,131.414 37.9578,133.081 38.5,136.5C 36.7868,137.635 36.1201,139.302 36.5,141.5C 33.4816,141.665 30.4816,141.498 27.5,141C 28.1492,137.417 28.4825,133.75 28.5,130C 28.4558,126.069 27.7891,122.402 26.5,119C 30.6888,118.188 34.6888,118.355 38.5,119.5 Z"/></g>
<g><path style="opacity:1" fill="#bb6f70" d="M 145.5,130.5 C 143.833,130.5 142.167,130.5 140.5,130.5C 140.5,133.167 140.5,135.833 140.5,138.5C 139.523,135.713 139.19,132.713 139.5,129.5C 141.735,129.205 143.735,129.539 145.5,130.5 Z"/></g>
<g><path style="opacity:1" fill="#ac2d2e" d="M 170.5,120.5 C 171.209,119.596 172.209,119.263 173.5,119.5C 172.701,126.754 172.201,134.088 172,141.5C 166.667,136.167 161.333,130.833 156,125.5C 155.222,130.584 155.389,135.584 156.5,140.5C 155.209,140.737 154.209,140.404 153.5,139.5C 153.17,132.468 153.503,125.468 154.5,118.5C 159.485,123.985 164.652,129.319 170,134.5C 170.499,129.845 170.666,125.179 170.5,120.5 Z"/></g>
<g><path style="opacity:1" fill="#ab2c2d" d="M 72.5,120.5 C 73.9187,119.549 75.5853,119.216 77.5,119.5C 78.8308,124.657 80.6641,129.657 83,134.5C 85.8565,129.752 88.0232,124.752 89.5,119.5C 90.552,119.351 91.552,119.517 92.5,120C 89.0719,126.782 85.7386,133.616 82.5,140.5C 79.1207,133.741 75.7874,127.075 72.5,120.5 Z"/></g>
<g><path style="opacity:1" fill="#ad3232" d="M 186.5,119.5 C 186.5,119.833 186.5,120.167 186.5,120.5C 184.549,121.282 183.049,122.616 182,124.5C 179.842,135 184.008,139.833 194.5,139C 195.701,138.097 196.535,136.931 197,135.5C 197.675,140.321 195.509,142.321 190.5,141.5C 180.366,140.919 176.2,135.586 178,125.5C 179.605,121.724 182.438,119.724 186.5,119.5 Z"/></g>
<g><path style="opacity:1" fill="#c99394" d="M 11.5,139.5 C 12.8333,140.833 14.1667,140.833 15.5,139.5C 19.2291,141.023 18.7291,141.689 14,141.5C 12.5,141.333 11,141.167 9.5,141C 10.0442,140.283 10.7109,139.783 11.5,139.5 Z"/></g>
<g><path style="opacity:1" fill="#ca9a9d" d="M 98.5,139.5 C 99.8333,140.833 101.167,140.833 102.5,139.5C 106.229,141.023 105.729,141.689 101,141.5C 99.5,141.333 98,141.167 96.5,141C 97.0442,140.283 97.7109,139.783 98.5,139.5 Z"/></g>
<g><path style="opacity:1" fill="#c47979" d="M 110.5,139.5 C 112.5,140.833 114.5,140.833 116.5,139.5C 118.167,139.5 119.833,139.5 121.5,139.5C 121.842,140.338 122.508,140.672 123.5,140.5C 118.684,141.65 113.684,141.816 108.5,141C 109.044,140.283 109.711,139.783 110.5,139.5 Z"/></g>
<g><path style="opacity:1" fill="#ca908f" d="M 136.5,139.5 C 139.962,140.482 143.629,140.815 147.5,140.5C 143.354,141.647 139.02,141.814 134.5,141C 135.044,140.283 135.711,139.783 136.5,139.5 Z"/></g>
<g><path style="opacity:1" fill="#c99795" d="M 153.5,139.5 C 154.209,140.404 155.209,140.737 156.5,140.5C 156.088,141.715 154.088,141.882 150.5,141C 151.527,140.487 152.527,139.987 153.5,139.5 Z"/></g>
<g><path style="opacity:1" fill="#868686" d="M 11.5,146.5 C 12.1342,145.053 13.3009,144.387 15,144.5C 16.6624,144.388 17.8291,145.054 18.5,146.5C 16.419,145.744 14.0857,145.744 11.5,146.5 Z"/></g>
<g><path style="opacity:1" fill="#808080" d="M 60.5,144.5 C 62.8273,144.247 64.8273,144.914 66.5,146.5C 64.7136,146.043 62.7136,146.043 60.5,146.5C 59.537,146.03 59.537,145.363 60.5,144.5 Z"/></g>
<g><path style="opacity:1" fill="#8f8f8f" d="M 69.5,144.5 C 71.5,144.5 73.5,144.5 75.5,144.5C 75.8808,146.942 75.2141,147.609 73.5,146.5C 72.2612,148.007 72.5946,149.174 74.5,150C 73.552,150.483 72.552,150.649 71.5,150.5C 71.5,151.5 71.5,152.5 71.5,153.5C 72.9778,153.238 74.3112,153.571 75.5,154.5C 73.604,155.466 71.604,155.799 69.5,155.5C 69.5,151.833 69.5,148.167 69.5,144.5 Z"/></g>
<g><path style="opacity:1" fill="#7b7b7b" d="M 206.5,146.5 C 208.669,143.932 211.002,143.932 213.5,146.5C 211.419,145.744 209.086,145.744 206.5,146.5 Z"/></g>
<g><path style="opacity:1" fill="#010101" d="M 35.5,153.5 C 35.1583,154.338 34.4916,154.672 33.5,154.5C 33.3354,151.482 33.502,148.482 34,145.5C 34.1829,148.365 34.6829,151.031 35.5,153.5 Z"/></g>
<g><path style="opacity:1" fill="#090909" d="M 97.5,146.5 C 96.8333,149.167 96.1667,151.833 95.5,154.5C 95.1826,151.428 95.5159,148.428 96.5,145.5C 97.1067,145.624 97.44,145.957 97.5,146.5 Z"/></g>
<g><path style="opacity:1" fill="#191919" d="M 171.5,150.5 C 169.448,151.053 169.115,152.053 170.5,153.5C 170.44,154.043 170.107,154.376 169.5,154.5C 168.334,148.116 168.334,146.449 169.5,149.5C 171.401,149.246 172.067,149.58 171.5,150.5 Z"/></g>
<g><path style="opacity:1" fill="#d7d7d7" d="M 26.5,145.5 C 29.1667,148.5 29.1667,151.5 26.5,154.5C 25.1667,155.833 23.8333,155.833 22.5,154.5C 22.9382,154.565 23.2716,154.399 23.5,154C 21.771,152.211 21.1043,150.044 21.5,147.5C 22.5092,144.834 24.1758,144.167 26.5,145.5 Z"/></g>
<g><path style="opacity:1" fill="#2c2c2c" d="M 41.5,145.5 C 42.7647,146.514 43.4313,148.014 43.5,150C 43.1667,151.5 42.8333,153 42.5,154.5C 41.5159,151.572 41.1826,148.572 41.5,145.5 Z"/></g>
<g><path style="opacity:1" fill="#414141" d="M 51.5,153.5 C 51.1583,154.338 50.4916,154.672 49.5,154.5C 49.1826,151.428 49.5159,148.428 50.5,145.5C 51.4287,146.689 51.762,148.022 51.5,149.5C 55.5,149.833 55.5,150.167 51.5,150.5C 51.5,151.5 51.5,152.5 51.5,153.5 Z"/></g>
<g><path style="opacity:1" fill="#b3b3b3" d="M 111.5,150.5 C 112.067,149.58 111.401,149.246 109.5,149.5C 108.43,146.387 108.263,148.054 109,154.5C 109.21,152.942 109.71,151.609 110.5,150.5C 110.5,151.5 110.5,152.5 110.5,153.5C 111.675,153.281 112.675,153.614 113.5,154.5C 111.604,155.466 109.604,155.799 107.5,155.5C 107.5,151.833 107.5,148.167 107.5,144.5C 109.604,144.201 111.604,144.534 113.5,145.5C 109.665,146.996 109.665,147.996 113.5,148.5C 113.719,149.675 113.386,150.675 112.5,151.5C 111.893,151.376 111.56,151.043 111.5,150.5 Z"/></g>
<g><path style="opacity:1" fill="#151515" d="M 111.5,150.5 C 111.167,150.5 110.833,150.5 110.5,150.5C 109.71,151.609 109.21,152.942 109,154.5C 108.263,148.054 108.43,146.387 109.5,149.5C 111.401,149.246 112.067,149.58 111.5,150.5 Z"/></g>
<g><path style="opacity:1" fill="#3e3e3e" d="M 140.5,145.5 C 141.765,146.514 142.431,148.014 142.5,150C 142.167,151.5 141.833,153 141.5,154.5C 140.516,151.572 140.183,148.572 140.5,145.5 Z"/></g>
<g><path style="opacity:1" fill="#b8b8b8" d="M 171.5,150.5 C 172.067,149.58 171.401,149.246 169.5,149.5C 168.334,146.449 168.334,148.116 169.5,154.5C 170.107,154.376 170.44,154.043 170.5,153.5C 171.675,153.281 172.675,153.614 173.5,154.5C 171.604,155.466 169.604,155.799 167.5,155.5C 167.5,151.833 167.5,148.167 167.5,144.5C 169.604,144.201 171.604,144.534 173.5,145.5C 169.665,146.996 169.665,147.996 173.5,148.5C 173.719,149.675 173.386,150.675 172.5,151.5C 171.893,151.376 171.56,151.043 171.5,150.5 Z"/></g>
<g><path style="opacity:1" fill="#747474" d="M 176.5,146.5 C 177.167,149.167 177.833,151.833 178.5,154.5C 178.514,155.612 177.514,155.779 175.5,155C 176.444,152.281 176.777,149.448 176.5,146.5 Z"/></g>
<g><path style="opacity:1" fill="#3d3d3d" d="M 193.5,145.5 C 195.812,147.146 197.812,149.146 199.5,151.5C 200.308,149.577 200.808,147.577 201,145.5C 203.129,156.221 201.296,157.555 195.5,149.5C 194.194,148.533 193.527,147.199 193.5,145.5 Z"/></g>
<g><path style="opacity:1" fill="#161616" d="M 21.5,147.5 C 21.1043,150.044 21.771,152.211 23.5,154C 23.2716,154.399 22.9382,154.565 22.5,154.5C 21.0069,153.688 20.3402,152.355 20.5,150.5C 20.5195,149.274 20.8529,148.274 21.5,147.5 Z"/></g>
<g><path style="opacity:1" fill="#1a1a1a" d="M 26.5,145.5 C 28.9497,145.874 29.9497,147.374 29.5,150C 29.9497,152.626 28.9497,154.126 26.5,154.5C 29.1667,151.5 29.1667,148.5 26.5,145.5 Z"/></g>
<g><path style="opacity:1" fill="#020202" d="M 59.5,153.5 C 57.5589,151.989 57.0589,149.989 58,147.5C 58.5046,149.518 59.0046,151.518 59.5,153.5 Z"/></g>
<g><path style="opacity:1" fill="#1c1c1c" d="M 85.5,145.5 C 82.8987,148.337 82.8987,151.17 85.5,154C 85.1667,154.167 84.8333,154.333 84.5,154.5C 82.976,153.473 82.3094,151.973 82.5,150C 82.0503,147.374 83.0503,145.874 85.5,145.5 Z"/></g>
<g><path style="opacity:1" fill="#141414" d="M 116.5,145.5 C 118.797,147.294 120.963,149.294 123,151.5C 123.333,149.5 123.667,147.5 124,145.5C 124.667,148.5 124.667,151.5 124,154.5C 122,152.5 120,150.5 118,148.5C 117.667,150.5 117.333,152.5 117,154.5C 116.502,151.518 116.335,148.518 116.5,145.5 Z"/></g>
<g><path style="opacity:1" fill="#292929" d="M 131.5,153.5 C 131.5,153.833 131.5,154.167 131.5,154.5C 127.298,153.048 126.464,150.381 129,146.5C 129.718,145.549 130.551,145.383 131.5,146C 128.86,148.621 128.86,151.121 131.5,153.5 Z"/></g>
<g><path style="opacity:1" fill="#474747" d="M 148.5,149.5 C 147.375,148.348 147.375,147.348 148.5,146.5C 150.479,147.812 152.145,149.479 153.5,151.5C 154.308,149.577 154.808,147.577 155,145.5C 155.667,148.833 155.667,152.167 155,155.5C 152.963,153.294 150.797,151.294 148.5,149.5 Z"/></g>
<g><path style="opacity:1" fill="#3b3b3b" d="M 159.5,145.5 C 161.199,145.34 162.866,145.506 164.5,146C 163.552,146.483 162.552,146.649 161.5,146.5C 161.5,147.5 161.5,148.5 161.5,149.5C 165.5,149.833 165.5,150.167 161.5,150.5C 161.762,151.978 161.429,153.311 160.5,154.5C 159.516,151.572 159.183,148.572 159.5,145.5 Z"/></g>
<g><path style="opacity:1" fill="#1f1f1f" d="M 11.5,146.5 C 11.3379,148.527 11.5045,150.527 12,152.5C 12.3826,153.056 12.8826,153.389 13.5,153.5C 13.5,154.167 13.1667,154.5 12.5,154.5C 9.02417,152.141 8.69084,149.474 11.5,146.5 Z"/></g>
<g><path style="opacity:1" fill="#868686" d="M 148.5,146.5 C 147.375,147.348 147.375,148.348 148.5,149.5C 148.261,151.467 148.594,153.301 149.5,155C 148.167,155.667 146.833,155.667 145.5,155C 146.13,151.871 146.796,148.704 147.5,145.5C 148.107,145.624 148.44,145.957 148.5,146.5 Z"/></g>
<g><path style="opacity:1" fill="#8d8d8d" d="M 193.5,145.5 C 193.527,147.199 194.194,148.533 195.5,149.5C 194.193,151.223 194.193,153.057 195.5,155C 194.167,155.667 192.833,155.667 191.5,155C 192.132,151.73 192.799,148.563 193.5,145.5 Z"/></g>
<g><path style="opacity:1" fill="#323232" d="M 206.5,146.5 C 205.339,151.175 207.006,153.841 211.5,154.5C 211.238,153.022 211.571,151.689 212.5,150.5C 214.028,155.084 212.362,156.584 207.5,155C 204.058,152.344 203.724,149.51 206.5,146.5 Z"/></g>
<g><path style="opacity:1" fill="#868686" d="M 97.5,146.5 C 97.3601,148.124 98.0267,149.29 99.5,150C 97.3424,151.312 97.0091,152.978 98.5,155C 96.4857,155.779 95.4857,155.612 95.5,154.5C 96.1667,151.833 96.8333,149.167 97.5,146.5 Z"/></g>
<g><path style="opacity:1" fill="#323232" d="M 183.5,153.5 C 183.5,154.167 183.167,154.5 182.5,154.5C 181.636,153.312 180.636,152.145 179.5,151C 180.833,149.333 180.833,147.667 179.5,146C 182.505,146.128 183.171,147.628 181.5,150.5C 181.942,151.739 182.609,152.739 183.5,153.5 Z"/></g>
<g><path style="opacity:1" fill="#8a8a8a" d="M 131.5,154.5 C 131.5,154.167 131.5,153.833 131.5,153.5C 132.15,153.804 132.817,154.137 133.5,154.5C 134.747,152.994 134.747,151.494 133.5,150C 134.793,149.51 136.127,149.343 137.5,149.5C 137.944,154.58 135.944,156.247 131.5,154.5 Z"/></g>
<g><path style="opacity:1" fill="#232323" d="M 176.5,146.5 C 176.56,145.957 176.893,145.624 177.5,145.5C 178.484,148.428 178.817,151.428 178.5,154.5C 177.833,151.833 177.167,149.167 176.5,146.5 Z"/></g>
<g><path style="opacity:1" fill="#8c8c8c" d="M 59.5,153.5 C 60.8333,153.5 62.1667,153.5 63.5,153.5C 63.5,152.167 63.5,150.833 63.5,149.5C 64.5,149.5 65.5,149.5 66.5,149.5C 67.0362,152.865 65.7028,154.865 62.5,155.5C 60.9623,155.547 59.9623,154.88 59.5,153.5 Z"/></g>
<g><path style="opacity:1" fill="#3b3b3b" d="M 85.5,145.5 C 87.377,144.375 89.2103,144.709 91,146.5C 91.769,149.099 91.6023,151.599 90.5,154C 89.8333,154.667 89.1667,154.667 88.5,154C 91.5687,149.784 90.5687,146.951 85.5,145.5 Z"/></g>
<g><path style="opacity:1" fill="#838383" d="M 12.5,154.5 C 13.1667,154.5 13.5,154.167 13.5,153.5C 15.2741,154.881 16.7741,154.548 18,152.5C 18.6667,153.167 18.6667,153.833 18,154.5C 16.0565,155.807 14.2232,155.807 12.5,154.5 Z"/></g>
<g><path style="opacity:1" fill="#9c9c9c" d="M 35.5,153.5 C 36.675,153.281 37.675,153.614 38.5,154.5C 36.0431,155.757 34.3765,155.757 33.5,154.5C 34.4916,154.672 35.1583,154.338 35.5,153.5 Z"/></g>
<g><path style="opacity:1" fill="#9d9d9d" d="M 51.5,153.5 C 52.4728,154.791 53.4728,154.791 54.5,153.5C 55.6956,153.846 55.6956,154.346 54.5,155C 51.9786,155.8 50.3119,155.633 49.5,154.5C 50.4916,154.672 51.1583,154.338 51.5,153.5 Z"/></g>
<g><path style="opacity:1" fill="#6e6e6e" d="M 182.5,154.5 C 183.167,154.5 183.5,154.167 183.5,153.5C 184.15,153.804 184.817,154.137 185.5,154.5C 186.167,151.5 186.833,148.5 187.5,145.5C 188.204,148.704 188.87,151.871 189.5,155C 186.961,155.796 184.628,155.629 182.5,154.5 Z"/></g>
<g><path style="opacity:1" fill="#404040" d="M 112.5,166.5 C 111.399,167.598 110.066,167.765 108.5,167C 107.557,164.2 107.724,161.366 109,158.5C 110.494,157.253 111.994,157.253 113.5,158.5C 113.062,159.506 112.396,159.506 111.5,158.5C 110.461,161.047 111.295,163.047 114,164.5C 114.333,163.833 114.667,163.167 115,162.5C 115.273,164.101 115.773,165.601 116.5,167C 115.181,167.195 113.847,167.028 112.5,166.5 Z"/></g>
<g><path style="opacity:1" fill="#939393" d="M 9.5,162.5 C 41.1737,162.167 72.8403,162.5 104.5,163.5C 88.6667,163.833 72.8333,164.167 57,164.5C 40.819,164.499 24.9856,163.833 9.5,162.5 Z"/></g>
<g><path style="opacity:1" fill="#f1f1f1" d="M 112.5,166.5 C 109.538,166.883 108.538,165.883 109.5,163.5C 110.855,164.188 111.855,165.188 112.5,166.5 Z"/></g>
<g><path style="opacity:1" fill="#939393" d="M 119.5,162.5 C 151.174,162.167 182.84,162.5 214.5,163.5C 198.667,163.833 182.833,164.167 167,164.5C 150.819,164.499 134.986,163.833 119.5,162.5 Z"/></g>
<g><path style="opacity:1" fill="#606060" d="M 40.5,171.5 C 42.3635,170.207 44.3635,170.207 46.5,171.5C 44.7805,171.746 42.7805,171.746 40.5,171.5 Z"/></g>
<g><path style="opacity:1" fill="#131313" d="M 49.5,171.5 C 49.56,170.957 49.8933,170.624 50.5,170.5C 51.4287,171.689 51.762,173.022 51.5,174.5C 53.1667,174.5 54.8333,174.5 56.5,174.5C 56.238,173.022 56.5713,171.689 57.5,170.5C 58.1067,170.624 58.44,170.957 58.5,171.5C 57.8333,174.167 57.1667,176.833 56.5,179.5C 56.5,178.167 56.5,176.833 56.5,175.5C 54.8333,175.5 53.1667,175.5 51.5,175.5C 51.5,176.833 51.5,178.167 51.5,179.5C 50.8333,176.833 50.1667,174.167 49.5,171.5 Z"/></g>
<g><path style="opacity:1" fill="#8e8e8e" d="M 80.5,170.5 C 79.8333,170.5 79.5,170.833 79.5,171.5C 78.0413,171.433 76.7079,171.766 75.5,172.5C 75.5,172.167 75.5,171.833 75.5,171.5C 76.9955,169.655 78.6621,169.322 80.5,170.5 Z"/></g>
<g><path style="opacity:1" fill="#070707" d="M 86.5,171.5 C 86.56,170.957 86.8933,170.624 87.5,170.5C 88.4841,173.428 88.8174,176.428 88.5,179.5C 87.8333,176.833 87.1667,174.167 86.5,171.5 Z"/></g>
<g><path style="opacity:1" fill="#0b0b0b" d="M 155.5,171.5 C 154.833,174.167 154.167,176.833 153.5,179.5C 153.183,176.428 153.516,173.428 154.5,170.5C 155.107,170.624 155.44,170.957 155.5,171.5 Z"/></g>
<g><path style="opacity:1" fill="#1c1c1c" d="M 159.5,170.5 C 161.797,172.294 163.963,174.294 166,176.5C 166.333,174.5 166.667,172.5 167,170.5C 167.667,173.833 167.667,177.167 167,180.5C 165.237,177.98 163.237,175.647 161,173.5C 160.667,175.5 160.333,177.5 160,179.5C 159.502,176.518 159.335,173.518 159.5,170.5 Z"/></g>
<g><path style="opacity:1" fill="#141414" d="M 173.5,178.5 C 173.5,179.167 173.167,179.5 172.5,179.5C 172.5,176.5 172.5,173.5 172.5,170.5C 176.838,170.622 177.172,170.955 173.5,171.5C 173.5,172.5 173.5,173.5 173.5,174.5C 177.5,174.833 177.5,175.167 173.5,175.5C 173.5,176.5 173.5,177.5 173.5,178.5 Z"/></g>
<g><path style="opacity:1" fill="#fbfbfb" d="M 79.5,171.5 C 81.7687,173.799 82.102,176.466 80.5,179.5C 76.1996,179.185 74.533,176.851 75.5,172.5C 76.7079,171.766 78.0413,171.433 79.5,171.5 Z"/></g>
<g><path style="opacity:1" fill="#202020" d="M 79.5,171.5 C 79.5,170.833 79.8333,170.5 80.5,170.5C 83.5627,172.46 84.2294,175.127 82.5,178.5C 82.0431,179.298 81.3764,179.631 80.5,179.5C 82.102,176.466 81.7687,173.799 79.5,171.5 Z"/></g>
<g><path style="opacity:1" fill="#2c2c2c" d="M 111.5,170.5 C 113.199,170.34 114.866,170.506 116.5,171C 115.552,171.483 114.552,171.649 113.5,171.5C 113.5,172.5 113.5,173.5 113.5,174.5C 117.5,174.833 117.5,175.167 113.5,175.5C 113.286,177.144 113.62,178.644 114.5,180C 113.167,180.667 111.833,180.667 110.5,180C 111.451,176.943 111.784,173.777 111.5,170.5 Z"/></g>
<g><path style="opacity:1" fill="#565656" d="M 134.5,177.5 C 134.205,175.265 134.539,173.265 135.5,171.5C 135.337,173.857 135.503,176.19 136,178.5C 137,179.833 138,179.833 139,178.5C 140.328,167.833 140.995,167.833 141,178.5C 138.136,181.402 135.969,181.068 134.5,177.5 Z"/></g>
<g><path style="opacity:1" fill="#999999" d="M 155.5,171.5 C 155.223,174.448 155.556,177.281 156.5,180C 154.486,180.779 153.486,180.612 153.5,179.5C 154.167,176.833 154.833,174.167 155.5,171.5 Z"/></g>
<g><path style="opacity:1" fill="#131313" d="M 180.5,170.5 C 182.648,170.389 182.981,171.056 181.5,172.5C 184.021,174.26 184.854,176.593 184,179.5C 182.085,176.765 180.918,173.765 180.5,170.5 Z"/></g>
<g><path style="opacity:1" fill="#010101" d="M 191.5,179.5 C 190.317,176.865 189.484,174.198 189,171.5C 189.615,173.116 190.615,174.449 192,175.5C 192.765,177.066 192.598,178.399 191.5,179.5 Z"/></g>
<g><path style="opacity:1" fill="#2b2b2b" d="M 40.5,171.5 C 39.6765,173.455 39.5099,175.455 40,177.5C 42.1831,179.183 44.3498,179.85 46.5,179.5C 40.0332,181.535 37.5332,179.202 39,172.5C 39.3826,171.944 39.8826,171.611 40.5,171.5 Z"/></g>
<g><path style="opacity:1" fill="#3c3c3c" d="M 128.5,179.5 C 127.054,180.613 125.387,180.78 123.5,180C 124.13,176.871 124.796,173.704 125.5,170.5C 126.14,175.062 127.306,175.396 129,171.5C 129.5,173.5 130,175.5 130.5,177.5C 130.253,178.713 129.586,179.38 128.5,179.5 Z"/></g>
<g><path style="opacity:1" fill="#202020" d="M 68.5,179.5 C 64.4466,181.126 62.1132,179.626 61.5,175C 61.5093,173.596 62.0093,172.43 63,171.5C 61.5845,176.325 63.4178,178.991 68.5,179.5 Z"/></g>
<g><path style="opacity:1" fill="#737373" d="M 86.5,171.5 C 87.1667,174.167 87.8333,176.833 88.5,179.5C 90.1092,179.094 91.4425,179.094 92.5,179.5C 90.604,180.466 88.604,180.799 86.5,180.5C 86.5,177.5 86.5,174.5 86.5,171.5 Z"/></g>
<g><path style="opacity:1" fill="#1e1e1e" d="M 105.5,179.5 C 101.447,181.126 99.1132,179.626 98.5,175C 98.5093,173.596 99.0093,172.43 100,171.5C 98.5845,176.325 100.418,178.991 105.5,179.5 Z"/></g>
<g><path style="opacity:1" fill="#070707" d="M 135.5,171.5 C 134.539,173.265 134.205,175.265 134.5,177.5C 133.203,175.307 133.203,172.973 134.5,170.5C 135.107,170.624 135.44,170.957 135.5,171.5 Z"/></g>
<g><path style="opacity:1" fill="#393939" d="M 31.5,170.5 C 32.9778,170.238 34.3112,170.571 35.5,171.5C 34.6034,171.669 33.6034,172.002 32.5,172.5C 35.0212,174.26 35.8545,176.593 35,179.5C 34.2753,180.059 33.4419,180.392 32.5,180.5C 31.0683,180.267 30.5683,179.6 31,178.5C 32.2975,179.784 33.4642,179.617 34.5,178C 31.1555,176.233 30.1555,173.733 31.5,170.5 Z"/></g>
<g><path style="opacity:1" fill="#1d1d1d" d="M 68.5,179.5 C 69.6139,176.154 69.6139,173.154 68.5,170.5C 70.2718,171.27 71.2718,172.603 71.5,174.5C 71.4047,176.869 70.4047,178.536 68.5,179.5 Z"/></g>
<g><path style="opacity:1" fill="#303030" d="M 145.5,170.5 C 146.978,170.238 148.311,170.571 149.5,171.5C 148.603,171.669 147.603,172.002 146.5,172.5C 149.021,174.26 149.854,176.593 149,179.5C 148.275,180.059 147.442,180.392 146.5,180.5C 145.068,180.267 144.568,179.6 145,178.5C 146.545,179.821 147.711,179.488 148.5,177.5C 147.653,176.155 146.487,175.155 145,174.5C 144.421,173.072 144.588,171.738 145.5,170.5 Z"/></g>
<g><path style="opacity:1" fill="#282828" d="M 105.5,179.5 C 106.614,176.154 106.614,173.154 105.5,170.5C 108.568,172.494 109.235,175.161 107.5,178.5C 107.043,179.298 106.376,179.631 105.5,179.5 Z"/></g>
<g><path style="opacity:1" fill="#f5f5f5" d="M 128.5,179.5 C 127.414,179.38 126.747,178.713 126.5,177.5C 126.833,176.833 127.167,176.167 127.5,175.5C 128.429,176.689 128.762,178.022 128.5,179.5 Z"/></g>
<g><path style="opacity:1" fill="#292929" d="M 75.5,171.5 C 75.5,171.833 75.5,172.167 75.5,172.5C 74.533,176.851 76.1996,179.185 80.5,179.5C 76.739,181.114 74.4056,179.78 73.5,175.5C 73.6682,173.829 74.3349,172.496 75.5,171.5 Z"/></g>
<g><path style="opacity:1" fill="#787878" d="M 49.5,171.5 C 50.1667,174.167 50.8333,176.833 51.5,179.5C 52.0674,180.42 51.4008,180.754 49.5,180.5C 49.5,177.5 49.5,174.5 49.5,171.5 Z"/></g>
<g><path style="opacity:1" fill="#888888" d="M 58.5,171.5 C 58.2229,174.448 58.5562,177.281 59.5,180C 57.4857,180.779 56.4857,180.612 56.5,179.5C 57.1667,176.833 57.8333,174.167 58.5,171.5 Z"/></g>
<g><path style="opacity:1" fill="#717171" d="M 173.5,178.5 C 174.975,179.262 176.309,179.595 177.5,179.5C 175.043,180.757 173.376,180.757 172.5,179.5C 173.167,179.5 173.5,179.167 173.5,178.5 Z"/></g>
<g><path style="opacity:1" fill="#3a3a3a" d="M 191.5,179.5 C 190.432,180.434 189.099,180.768 187.5,180.5C 187.351,179.448 187.517,178.448 188,177.5C 188.71,178.973 189.876,179.64 191.5,179.5 Z"/></g>
</svg>
